<mxfile host="app.diagrams.net" agent="Mozilla/5.0 (X11; Linux x86_64) AppleWebKit/537.36 (KHTML, like Gecko) Chrome/131.0.0.0 Safari/537.36" version="26.0.4">
  <diagram name="Page-1" id="ynTKS2v_TZv17swCPKiS">
    <mxGraphModel dx="1541" dy="942" grid="1" gridSize="10" guides="1" tooltips="1" connect="1" arrows="1" fold="1" page="1" pageScale="1" pageWidth="827" pageHeight="1169" math="0" shadow="0">
      <root>
        <mxCell id="0" />
        <mxCell id="1" parent="0" />
        <mxCell id="ltitkqDnKHNBnyyiyaz9-99" value="" style="rounded=1;whiteSpace=wrap;html=1;fillColor=#FFFFFF;" parent="1" vertex="1">
          <mxGeometry x="550" width="344" height="380" as="geometry" />
        </mxCell>
        <mxCell id="ltitkqDnKHNBnyyiyaz9-95" value="" style="rounded=1;whiteSpace=wrap;html=1;fillColor=#FFFFFF;" parent="1" vertex="1">
          <mxGeometry x="-280" width="760" height="850" as="geometry" />
        </mxCell>
        <mxCell id="ltitkqDnKHNBnyyiyaz9-87" value="" style="rounded=1;whiteSpace=wrap;html=1;strokeColor=none;fillColor=#FCEFE6;fontStyle=1" parent="1" vertex="1">
          <mxGeometry x="-215" y="424" width="665" height="326" as="geometry" />
        </mxCell>
        <mxCell id="ltitkqDnKHNBnyyiyaz9-67" value="" style="rounded=1;whiteSpace=wrap;html=1;strokeColor=none;fillColor=#f0fbff;fontStyle=1" parent="1" vertex="1">
          <mxGeometry y="9" width="338" height="321" as="geometry" />
        </mxCell>
        <mxCell id="ltitkqDnKHNBnyyiyaz9-64" style="edgeStyle=orthogonalEdgeStyle;rounded=0;orthogonalLoop=1;jettySize=auto;html=1;exitX=1;exitY=0.5;exitDx=0;exitDy=0;entryX=1;entryY=0.5;entryDx=0;entryDy=0;" parent="1" source="ltitkqDnKHNBnyyiyaz9-3" target="ltitkqDnKHNBnyyiyaz9-30" edge="1">
          <mxGeometry relative="1" as="geometry" />
        </mxCell>
        <mxCell id="ltitkqDnKHNBnyyiyaz9-65" style="edgeStyle=orthogonalEdgeStyle;rounded=0;orthogonalLoop=1;jettySize=auto;html=1;exitX=1;exitY=0.5;exitDx=0;exitDy=0;entryX=1;entryY=0.5;entryDx=0;entryDy=0;" parent="1" source="ltitkqDnKHNBnyyiyaz9-3" target="ltitkqDnKHNBnyyiyaz9-31" edge="1">
          <mxGeometry relative="1" as="geometry" />
        </mxCell>
        <mxCell id="ltitkqDnKHNBnyyiyaz9-3" value="&lt;font style=&quot;font-size: 18px;&quot;&gt;Exponential&lt;/font&gt;" style="rounded=1;whiteSpace=wrap;html=1;fillColor=#68A9D4;" parent="1" vertex="1">
          <mxGeometry x="154" y="180" width="120" height="40" as="geometry" />
        </mxCell>
        <mxCell id="ltitkqDnKHNBnyyiyaz9-50" style="edgeStyle=orthogonalEdgeStyle;rounded=0;orthogonalLoop=1;jettySize=auto;html=1;exitX=0.5;exitY=1;exitDx=0;exitDy=0;entryX=0.5;entryY=0;entryDx=0;entryDy=0;" parent="1" source="ltitkqDnKHNBnyyiyaz9-4" target="ltitkqDnKHNBnyyiyaz9-7" edge="1">
          <mxGeometry relative="1" as="geometry" />
        </mxCell>
        <mxCell id="ltitkqDnKHNBnyyiyaz9-4" value="&lt;font style=&quot;font-size: 18px;&quot;&gt;Defaults&lt;/font&gt;" style="rounded=1;whiteSpace=wrap;html=1;fillColor=#68A9D4;" parent="1" vertex="1">
          <mxGeometry x="29" y="20" width="90" height="40" as="geometry" />
        </mxCell>
        <mxCell id="ltitkqDnKHNBnyyiyaz9-62" style="edgeStyle=orthogonalEdgeStyle;rounded=0;orthogonalLoop=1;jettySize=auto;html=1;exitX=0.5;exitY=1;exitDx=0;exitDy=0;entryX=0.5;entryY=0;entryDx=0;entryDy=0;" parent="1" source="ltitkqDnKHNBnyyiyaz9-5" target="ltitkqDnKHNBnyyiyaz9-8" edge="1">
          <mxGeometry relative="1" as="geometry" />
        </mxCell>
        <mxCell id="ltitkqDnKHNBnyyiyaz9-5" value="&lt;font style=&quot;font-size: 18px;&quot;&gt;Model&lt;/font&gt;" style="rounded=1;whiteSpace=wrap;html=1;fillColor=#68A9D4;" parent="1" vertex="1">
          <mxGeometry x="34" y="160" width="80" height="40" as="geometry" />
        </mxCell>
        <mxCell id="ltitkqDnKHNBnyyiyaz9-92" style="edgeStyle=orthogonalEdgeStyle;rounded=0;orthogonalLoop=1;jettySize=auto;html=1;exitX=0.5;exitY=1;exitDx=0;exitDy=0;entryX=0.5;entryY=0;entryDx=0;entryDy=0;" parent="1" source="ltitkqDnKHNBnyyiyaz9-6" target="ltitkqDnKHNBnyyiyaz9-28" edge="1">
          <mxGeometry relative="1" as="geometry" />
        </mxCell>
        <mxCell id="ltitkqDnKHNBnyyiyaz9-6" value="&lt;font style=&quot;font-size: 18px;&quot;&gt;Trial&lt;/font&gt;" style="rounded=1;whiteSpace=wrap;html=1;fillColor=#68A9D4;" parent="1" vertex="1">
          <mxGeometry x="691.5" y="80" width="70" height="40" as="geometry" />
        </mxCell>
        <mxCell id="ltitkqDnKHNBnyyiyaz9-61" style="edgeStyle=orthogonalEdgeStyle;rounded=0;orthogonalLoop=1;jettySize=auto;html=1;exitX=0.5;exitY=1;exitDx=0;exitDy=0;entryX=0.5;entryY=0;entryDx=0;entryDy=0;" parent="1" source="ltitkqDnKHNBnyyiyaz9-7" target="ltitkqDnKHNBnyyiyaz9-5" edge="1">
          <mxGeometry relative="1" as="geometry" />
        </mxCell>
        <mxCell id="ltitkqDnKHNBnyyiyaz9-7" value="&lt;font style=&quot;font-size: 14px;&quot;&gt;param&lt;/font&gt;" style="rounded=1;whiteSpace=wrap;html=1;fillColor=#A9E4F5;" parent="1" vertex="1">
          <mxGeometry x="41" y="90" width="66" height="30" as="geometry" />
        </mxCell>
        <mxCell id="ltitkqDnKHNBnyyiyaz9-68" style="edgeStyle=orthogonalEdgeStyle;rounded=0;orthogonalLoop=1;jettySize=auto;html=1;exitX=0.5;exitY=1;exitDx=0;exitDy=0;entryX=0.5;entryY=0;entryDx=0;entryDy=0;" parent="1" source="ltitkqDnKHNBnyyiyaz9-8" target="ltitkqDnKHNBnyyiyaz9-9" edge="1">
          <mxGeometry relative="1" as="geometry" />
        </mxCell>
        <mxCell id="ltitkqDnKHNBnyyiyaz9-8" value="&lt;font style=&quot;font-size: 14px;&quot;&gt;model&lt;/font&gt;" style="rounded=1;whiteSpace=wrap;html=1;fillColor=#A9E4F5;" parent="1" vertex="1">
          <mxGeometry x="41" y="250" width="66" height="30" as="geometry" />
        </mxCell>
        <mxCell id="ltitkqDnKHNBnyyiyaz9-77" style="edgeStyle=orthogonalEdgeStyle;rounded=0;orthogonalLoop=1;jettySize=auto;html=1;exitX=0.5;exitY=1;exitDx=0;exitDy=0;entryX=0.5;entryY=0;entryDx=0;entryDy=0;" parent="1" source="ltitkqDnKHNBnyyiyaz9-9" target="ltitkqDnKHNBnyyiyaz9-10" edge="1">
          <mxGeometry relative="1" as="geometry">
            <Array as="points">
              <mxPoint x="74" y="410" />
              <mxPoint x="4" y="410" />
            </Array>
          </mxGeometry>
        </mxCell>
        <mxCell id="ltitkqDnKHNBnyyiyaz9-81" style="edgeStyle=orthogonalEdgeStyle;rounded=0;orthogonalLoop=1;jettySize=auto;html=1;exitX=0.5;exitY=1;exitDx=0;exitDy=0;entryX=0.5;entryY=0;entryDx=0;entryDy=0;" parent="1" source="ltitkqDnKHNBnyyiyaz9-9" target="ltitkqDnKHNBnyyiyaz9-11" edge="1">
          <mxGeometry relative="1" as="geometry">
            <Array as="points">
              <mxPoint x="74" y="410" />
              <mxPoint x="330" y="410" />
            </Array>
          </mxGeometry>
        </mxCell>
        <mxCell id="ltitkqDnKHNBnyyiyaz9-9" value="&lt;span style=&quot;font-size: 14px;&quot;&gt;run()&lt;/span&gt;" style="rounded=1;whiteSpace=wrap;html=1;fillColor=#F2A25C;" parent="1" vertex="1">
          <mxGeometry x="38.5" y="345" width="71" height="30" as="geometry" />
        </mxCell>
        <mxCell id="ltitkqDnKHNBnyyiyaz9-10" value="&lt;span style=&quot;font-size: 14px;&quot;&gt;generate_patient_arrivals()&lt;/span&gt;" style="rounded=1;whiteSpace=wrap;html=1;fillColor=#F2A25C;" parent="1" vertex="1">
          <mxGeometry x="-86" y="456.5" width="180" height="30" as="geometry" />
        </mxCell>
        <mxCell id="ltitkqDnKHNBnyyiyaz9-11" value="&lt;span style=&quot;font-size: 14px;&quot;&gt;interval_audit()&lt;/span&gt;" style="rounded=1;whiteSpace=wrap;html=1;fillColor=#F2A25C;" parent="1" vertex="1">
          <mxGeometry x="240" y="456.5" width="180" height="30" as="geometry" />
        </mxCell>
        <mxCell id="ltitkqDnKHNBnyyiyaz9-73" style="edgeStyle=orthogonalEdgeStyle;rounded=0;orthogonalLoop=1;jettySize=auto;html=1;exitX=1;exitY=0.5;exitDx=0;exitDy=0;entryX=0.5;entryY=0;entryDx=0;entryDy=0;" parent="1" source="ltitkqDnKHNBnyyiyaz9-12" target="ltitkqDnKHNBnyyiyaz9-13" edge="1">
          <mxGeometry relative="1" as="geometry" />
        </mxCell>
        <mxCell id="ltitkqDnKHNBnyyiyaz9-12" value="Creates patient and enters into attend_clinic()" style="text;html=1;align=center;verticalAlign=middle;whiteSpace=wrap;rounded=0;" parent="1" vertex="1">
          <mxGeometry x="-86" y="486.5" width="180" height="40" as="geometry" />
        </mxCell>
        <mxCell id="ltitkqDnKHNBnyyiyaz9-13" value="&lt;span style=&quot;font-size: 14px;&quot;&gt;attend_clinic()&lt;/span&gt;" style="rounded=1;whiteSpace=wrap;html=1;fillColor=#F2A25C;" parent="1" vertex="1">
          <mxGeometry x="70" y="632" width="180" height="30" as="geometry" />
        </mxCell>
        <mxCell id="ltitkqDnKHNBnyyiyaz9-14" value="Samples and passes time to next patient arrival" style="text;html=1;align=center;verticalAlign=middle;whiteSpace=wrap;rounded=0;" parent="1" vertex="1">
          <mxGeometry x="-86" y="570" width="180" height="40" as="geometry" />
        </mxCell>
        <mxCell id="ltitkqDnKHNBnyyiyaz9-17" value="" style="curved=1;endArrow=classic;html=1;rounded=0;" parent="1" edge="1">
          <mxGeometry width="50" height="50" relative="1" as="geometry">
            <mxPoint x="-10" y="566.5" as="sourcePoint" />
            <mxPoint y="526.5" as="targetPoint" />
            <Array as="points">
              <mxPoint x="-20" y="556.5" />
              <mxPoint x="-20" y="536.5" />
            </Array>
          </mxGeometry>
        </mxCell>
        <mxCell id="ltitkqDnKHNBnyyiyaz9-18" value="&lt;div&gt;&lt;br&gt;&lt;/div&gt;&lt;div&gt;&lt;br&gt;&lt;/div&gt;" style="shape=umlActor;verticalLabelPosition=bottom;verticalAlign=top;html=1;outlineConnect=0;" parent="1" vertex="1">
          <mxGeometry x="-116" y="473" width="30" height="60" as="geometry" />
        </mxCell>
        <mxCell id="ltitkqDnKHNBnyyiyaz9-21" value="&lt;div&gt;&lt;br&gt;&lt;/div&gt;&lt;div&gt;&lt;br&gt;&lt;/div&gt;" style="shape=umlActor;verticalLabelPosition=bottom;verticalAlign=top;html=1;outlineConnect=0;" parent="1" vertex="1">
          <mxGeometry x="34" y="640" width="30" height="60" as="geometry" />
        </mxCell>
        <mxCell id="ltitkqDnKHNBnyyiyaz9-22" value="Waits in queue&lt;div&gt;Captures nurse resource&lt;/div&gt;&lt;div&gt;Samples and passes consultation time&lt;/div&gt;&lt;div&gt;Records wait + consultation time&lt;/div&gt;" style="text;html=1;align=center;verticalAlign=middle;whiteSpace=wrap;rounded=0;" parent="1" vertex="1">
          <mxGeometry x="45" y="680" width="230" height="40" as="geometry" />
        </mxCell>
        <mxCell id="ltitkqDnKHNBnyyiyaz9-23" value="&lt;div&gt;&lt;br&gt;&lt;/div&gt;&lt;div&gt;&lt;br&gt;&lt;/div&gt;" style="shape=umlActor;verticalLabelPosition=bottom;verticalAlign=top;html=1;outlineConnect=0;" parent="1" vertex="1">
          <mxGeometry x="-80" y="770" width="30" height="60" as="geometry" />
        </mxCell>
        <mxCell id="ltitkqDnKHNBnyyiyaz9-24" value="Patient instances are stored in a list within model&lt;div&gt;Use their attributes to make patient-level results&lt;/div&gt;" style="text;html=1;align=center;verticalAlign=middle;whiteSpace=wrap;rounded=0;" parent="1" vertex="1">
          <mxGeometry x="-50" y="770" width="280" height="40" as="geometry" />
        </mxCell>
        <mxCell id="ltitkqDnKHNBnyyiyaz9-98" style="edgeStyle=orthogonalEdgeStyle;rounded=0;orthogonalLoop=1;jettySize=auto;html=1;exitX=0.5;exitY=1;exitDx=0;exitDy=0;" parent="1" source="ltitkqDnKHNBnyyiyaz9-25" target="ltitkqDnKHNBnyyiyaz9-29" edge="1">
          <mxGeometry relative="1" as="geometry" />
        </mxCell>
        <mxCell id="ltitkqDnKHNBnyyiyaz9-25" value="&lt;font style=&quot;font-size: 18px;&quot;&gt;Patient&lt;/font&gt;" style="rounded=1;whiteSpace=wrap;html=1;fillColor=#68A9D4;" parent="1" vertex="1">
          <mxGeometry x="-197" y="405" width="80" height="40" as="geometry" />
        </mxCell>
        <mxCell id="ltitkqDnKHNBnyyiyaz9-93" style="edgeStyle=orthogonalEdgeStyle;rounded=0;orthogonalLoop=1;jettySize=auto;html=1;exitX=0.5;exitY=1;exitDx=0;exitDy=0;entryX=0.5;entryY=0;entryDx=0;entryDy=0;" parent="1" source="ltitkqDnKHNBnyyiyaz9-28" target="ltitkqDnKHNBnyyiyaz9-32" edge="1">
          <mxGeometry relative="1" as="geometry" />
        </mxCell>
        <mxCell id="ltitkqDnKHNBnyyiyaz9-94" style="edgeStyle=orthogonalEdgeStyle;rounded=0;orthogonalLoop=1;jettySize=auto;html=1;exitX=0.5;exitY=1;exitDx=0;exitDy=0;" parent="1" source="ltitkqDnKHNBnyyiyaz9-28" target="ltitkqDnKHNBnyyiyaz9-33" edge="1">
          <mxGeometry relative="1" as="geometry" />
        </mxCell>
        <mxCell id="ltitkqDnKHNBnyyiyaz9-28" value="&lt;font style=&quot;font-size: 14px;&quot;&gt;trial&lt;/font&gt;" style="rounded=1;whiteSpace=wrap;html=1;fillColor=#A9E4F5;" parent="1" vertex="1">
          <mxGeometry x="691.5" y="155" width="66" height="30" as="geometry" />
        </mxCell>
        <mxCell id="ltitkqDnKHNBnyyiyaz9-29" value="&lt;font style=&quot;font-size: 14px;&quot;&gt;patient&lt;/font&gt;" style="rounded=1;whiteSpace=wrap;html=1;fillColor=#A9E4F5;" parent="1" vertex="1">
          <mxGeometry x="-190" y="480" width="66" height="30" as="geometry" />
        </mxCell>
        <mxCell id="ltitkqDnKHNBnyyiyaz9-30" value="&lt;font style=&quot;font-size: 14px;&quot;&gt;patient_inter_arrival_dist&lt;/font&gt;" style="rounded=1;whiteSpace=wrap;html=1;fillColor=#A9E4F5;" parent="1" vertex="1">
          <mxGeometry x="128" y="250" width="172" height="30" as="geometry" />
        </mxCell>
        <mxCell id="ltitkqDnKHNBnyyiyaz9-31" value="&lt;font style=&quot;font-size: 14px;&quot;&gt;nurse_consult_time_dist&lt;/font&gt;" style="rounded=1;whiteSpace=wrap;html=1;fillColor=#A9E4F5;" parent="1" vertex="1">
          <mxGeometry x="128" y="290" width="172" height="30" as="geometry" />
        </mxCell>
        <mxCell id="ltitkqDnKHNBnyyiyaz9-32" value="&lt;font style=&quot;font-size: 14px;&quot;&gt;run_single()&lt;/font&gt;" style="rounded=1;whiteSpace=wrap;html=1;fillColor=#F2A25C;" parent="1" vertex="1">
          <mxGeometry x="592.5" y="238" width="90" height="30" as="geometry" />
        </mxCell>
        <mxCell id="ltitkqDnKHNBnyyiyaz9-33" value="&lt;font style=&quot;font-size: 14px;&quot;&gt;run_trial()&lt;/font&gt;" style="rounded=1;whiteSpace=wrap;html=1;fillColor=#F2A25C;" parent="1" vertex="1">
          <mxGeometry x="761.5" y="238" width="90" height="30" as="geometry" />
        </mxCell>
        <mxCell id="ltitkqDnKHNBnyyiyaz9-34" value="Runs model once&lt;div&gt;Calculates trial-level results&lt;/div&gt;" style="text;html=1;align=center;verticalAlign=middle;whiteSpace=wrap;rounded=0;" parent="1" vertex="1">
          <mxGeometry x="550" y="268" width="175" height="40" as="geometry" />
        </mxCell>
        <mxCell id="ltitkqDnKHNBnyyiyaz9-35" value="patient-level results" style="rounded=1;whiteSpace=wrap;html=1;fillColor=#D3F1E2;" parent="1" vertex="1">
          <mxGeometry x="29" y="810" width="120" height="30" as="geometry" />
        </mxCell>
        <mxCell id="ltitkqDnKHNBnyyiyaz9-36" value="interval audit results" style="rounded=1;whiteSpace=wrap;html=1;fillColor=#D3F1E2;" parent="1" vertex="1">
          <mxGeometry x="350" y="544" width="120" height="30" as="geometry" />
        </mxCell>
        <mxCell id="ltitkqDnKHNBnyyiyaz9-37" value="trial-level results" style="rounded=1;whiteSpace=wrap;html=1;fillColor=#D3F1E2;" parent="1" vertex="1">
          <mxGeometry x="577.5" y="308" width="120" height="30" as="geometry" />
        </mxCell>
        <mxCell id="ltitkqDnKHNBnyyiyaz9-38" value="overall results" style="rounded=1;whiteSpace=wrap;html=1;fillColor=#D3F1E2;" parent="1" vertex="1">
          <mxGeometry x="746.5" y="318" width="120" height="30" as="geometry" />
        </mxCell>
        <mxCell id="ltitkqDnKHNBnyyiyaz9-39" value="Performs multiple runs / replications and finds overall results" style="text;html=1;align=center;verticalAlign=middle;whiteSpace=wrap;rounded=0;" parent="1" vertex="1">
          <mxGeometry x="719" y="273" width="175" height="40" as="geometry" />
        </mxCell>
        <mxCell id="ltitkqDnKHNBnyyiyaz9-40" value="At specified intervals, records the current nurse utilisation and cumulative mean waiting time" style="text;html=1;align=center;verticalAlign=middle;whiteSpace=wrap;rounded=0;" parent="1" vertex="1">
          <mxGeometry x="239" y="493" width="175" height="40" as="geometry" />
        </mxCell>
        <mxCell id="ltitkqDnKHNBnyyiyaz9-41" value="Key:" style="text;html=1;align=center;verticalAlign=middle;whiteSpace=wrap;rounded=0;fontStyle=1" parent="1" vertex="1">
          <mxGeometry x="694" y="662" width="45" height="25" as="geometry" />
        </mxCell>
        <mxCell id="ltitkqDnKHNBnyyiyaz9-42" value="Results" style="rounded=1;whiteSpace=wrap;html=1;fillColor=#D3F1E2;" parent="1" vertex="1">
          <mxGeometry x="649" y="813" width="135" height="30" as="geometry" />
        </mxCell>
        <mxCell id="ltitkqDnKHNBnyyiyaz9-43" value="Functions or methods" style="rounded=1;whiteSpace=wrap;html=1;fillColor=#F4CBA1;" parent="1" vertex="1">
          <mxGeometry x="649" y="775" width="135" height="30" as="geometry" />
        </mxCell>
        <mxCell id="ltitkqDnKHNBnyyiyaz9-44" value="Instance of class" style="rounded=1;whiteSpace=wrap;html=1;fillColor=#A9E4F5;" parent="1" vertex="1">
          <mxGeometry x="649" y="736" width="135" height="30" as="geometry" />
        </mxCell>
        <mxCell id="ltitkqDnKHNBnyyiyaz9-45" value="Class" style="rounded=1;whiteSpace=wrap;html=1;fillColor=#68A9D4;" parent="1" vertex="1">
          <mxGeometry x="649" y="697.5" width="135" height="30" as="geometry" />
        </mxCell>
        <mxCell id="ltitkqDnKHNBnyyiyaz9-72" value="" style="curved=1;endArrow=classic;html=1;rounded=0;" parent="1" edge="1">
          <mxGeometry width="50" height="50" relative="1" as="geometry">
            <mxPoint x="15" y="530" as="sourcePoint" />
            <mxPoint x="5" y="570" as="targetPoint" />
            <Array as="points">
              <mxPoint x="25" y="540" />
              <mxPoint x="25" y="560" />
            </Array>
          </mxGeometry>
        </mxCell>
        <mxCell id="ltitkqDnKHNBnyyiyaz9-78" style="edgeStyle=orthogonalEdgeStyle;rounded=0;orthogonalLoop=1;jettySize=auto;html=1;exitX=0.5;exitY=1;exitDx=0;exitDy=0;" parent="1" source="ltitkqDnKHNBnyyiyaz9-22" target="ltitkqDnKHNBnyyiyaz9-22" edge="1">
          <mxGeometry relative="1" as="geometry" />
        </mxCell>
        <mxCell id="ltitkqDnKHNBnyyiyaz9-82" value="" style="curved=1;endArrow=classic;html=1;rounded=0;dashed=1;" parent="1" edge="1">
          <mxGeometry width="50" height="50" relative="1" as="geometry">
            <mxPoint x="328" y="544" as="sourcePoint" />
            <mxPoint x="258" y="624" as="targetPoint" />
            <Array as="points">
              <mxPoint x="338" y="574" />
              <mxPoint x="328" y="614" />
            </Array>
          </mxGeometry>
        </mxCell>
        <mxCell id="ltitkqDnKHNBnyyiyaz9-88" value="" style="curved=1;endArrow=classic;html=1;rounded=0;dashed=1;" parent="1" edge="1">
          <mxGeometry width="50" height="50" relative="1" as="geometry">
            <mxPoint x="24" y="682" as="sourcePoint" />
            <mxPoint x="-46" y="762" as="targetPoint" />
            <Array as="points">
              <mxPoint x="-10" y="680" />
              <mxPoint x="-60" y="710" />
            </Array>
          </mxGeometry>
        </mxCell>
        <mxCell id="ltitkqDnKHNBnyyiyaz9-96" value="&lt;font style=&quot;font-size: 18px;&quot;&gt;Discrete-Event Simulation Model&lt;/font&gt;" style="text;html=1;align=center;verticalAlign=middle;whiteSpace=wrap;rounded=0;fontStyle=1" parent="1" vertex="1">
          <mxGeometry x="-230" y="60" width="190" height="71" as="geometry" />
        </mxCell>
        <mxCell id="ltitkqDnKHNBnyyiyaz9-100" value="&lt;font style=&quot;font-size: 18px;&quot;&gt;Running the model&lt;/font&gt;" style="text;html=1;align=center;verticalAlign=middle;whiteSpace=wrap;rounded=0;fontStyle=1" parent="1" vertex="1">
          <mxGeometry x="629.5" y="20" width="190" height="31" as="geometry" />
        </mxCell>
        <mxCell id="vqxNZKrtE7Uk3ozEDKWz-1" value="" style="rounded=1;whiteSpace=wrap;html=1;fillColor=#FFFFFF;" vertex="1" parent="1">
          <mxGeometry x="550" y="410" width="344" height="240" as="geometry" />
        </mxCell>
        <mxCell id="vqxNZKrtE7Uk3ozEDKWz-2" value="&lt;span style=&quot;font-size: 18px;&quot;&gt;Get updates as model runs&lt;/span&gt;" style="text;html=1;align=center;verticalAlign=middle;whiteSpace=wrap;rounded=0;fontStyle=1" vertex="1" parent="1">
          <mxGeometry x="573.5" y="414" width="297" height="31" as="geometry" />
        </mxCell>
        <mxCell id="vqxNZKrtE7Uk3ozEDKWz-3" value="&lt;font style=&quot;font-size: 18px;&quot;&gt;Sim_Logger&lt;/font&gt;" style="rounded=1;whiteSpace=wrap;html=1;fillColor=#68A9D4;" vertex="1" parent="1">
          <mxGeometry x="606" y="456.5" width="113" height="40" as="geometry" />
        </mxCell>
        <mxCell id="vqxNZKrtE7Uk3ozEDKWz-5" style="edgeStyle=orthogonalEdgeStyle;rounded=0;orthogonalLoop=1;jettySize=auto;html=1;exitX=0.5;exitY=1;exitDx=0;exitDy=0;entryX=0.5;entryY=0;entryDx=0;entryDy=0;" edge="1" parent="1" target="vqxNZKrtE7Uk3ozEDKWz-6">
          <mxGeometry relative="1" as="geometry">
            <mxPoint x="662.5" y="496.5" as="sourcePoint" />
          </mxGeometry>
        </mxCell>
        <mxCell id="vqxNZKrtE7Uk3ozEDKWz-10" style="edgeStyle=none;curved=1;rounded=0;orthogonalLoop=1;jettySize=auto;html=1;exitX=0.5;exitY=1;exitDx=0;exitDy=0;fontSize=12;startSize=8;endSize=8;" edge="1" parent="1" source="vqxNZKrtE7Uk3ozEDKWz-6" target="vqxNZKrtE7Uk3ozEDKWz-9">
          <mxGeometry relative="1" as="geometry" />
        </mxCell>
        <mxCell id="vqxNZKrtE7Uk3ozEDKWz-6" value="&lt;font style=&quot;font-size: 14px;&quot;&gt;logger&lt;/font&gt;" style="rounded=1;whiteSpace=wrap;html=1;fillColor=#A9E4F5;" vertex="1" parent="1">
          <mxGeometry x="627" y="531.5" width="66" height="30" as="geometry" />
        </mxCell>
        <mxCell id="vqxNZKrtE7Uk3ozEDKWz-9" value="&lt;font style=&quot;font-size: 14px;&quot;&gt;log()&lt;/font&gt;" style="rounded=1;whiteSpace=wrap;html=1;fillColor=#F2A25C;" vertex="1" parent="1">
          <mxGeometry x="615" y="602" width="90" height="30" as="geometry" />
        </mxCell>
        <mxCell id="vqxNZKrtE7Uk3ozEDKWz-11" value="Prints updates&amp;nbsp;&lt;span style=&quot;background-color: transparent; color: light-dark(rgb(0, 0, 0), rgb(255, 255, 255));&quot;&gt;(e.g. &quot;Patient 1 arrives at: 13.174 minutes&quot;) to console or saves to log&lt;/span&gt;" style="text;html=1;align=center;verticalAlign=middle;whiteSpace=wrap;rounded=0;" vertex="1" parent="1">
          <mxGeometry x="705" y="597" width="185" height="40" as="geometry" />
        </mxCell>
      </root>
    </mxGraphModel>
  </diagram>
</mxfile>
